<?xml version="1.0" encoding="UTF-8" standalone="no"?>
<!DOCTYPE svg PUBLIC "-//W3C//DTD SVG 1.1//EN"
 "http://www.w3.org/Graphics/SVG/1.1/DTD/svg11.dtd">
<!-- Generated by graphviz version 2.43.0 (0)
 -->
<!-- Title: aas_standard_parser.aid_parser.IAuthenticationDetails Pages: 1 -->
<svg width="395pt" height="86pt"
 viewBox="0.00 0.00 395.00 86.00" xmlns="http://www.w3.org/2000/svg" xmlns:xlink="http://www.w3.org/1999/xlink">
<g id="graph0" class="graph" transform="scale(1 1) rotate(0) translate(4 82)">
<title>aas_standard_parser.aid_parser.IAuthenticationDetails</title>
<!-- Node1 -->
<g id="Node000001" class="node">
<title>Node1</title>
<g id="a_Node000001"><a xlink:title="Interface for authentication details.">
<polygon fill="#999999" stroke="#666666" points="164,-54 0,-54 0,-24 164,-24 164,-54"/>
<text text-anchor="start" x="8" y="-42" font-family="Helvetica,sans-Serif" font-size="10.00">aas_standard_parser.aid</text>
<text text-anchor="middle" x="82" y="-31" font-family="Helvetica,sans-Serif" font-size="10.00">_parser.IAuthenticationDetails</text>
</a>
</g>
</g>
<!-- Node2 -->
<g id="Node000002" class="node">
<title>Node2</title>
<g id="a_Node000002"><a xlink:href="classaas__standard__parser_1_1aid__parser_1_1BasicAuthenticationDetails.html" target="_top" xlink:title="Basic authentication details.">
<polygon fill="white" stroke="#666666" points="387,-78 200,-78 200,-48 387,-48 387,-78"/>
<text text-anchor="start" x="208" y="-66" font-family="Helvetica,sans-Serif" font-size="10.00">aas_standard_parser.aid</text>
<text text-anchor="middle" x="293.5" y="-55" font-family="Helvetica,sans-Serif" font-size="10.00">_parser.BasicAuthenticationDetails</text>
</a>
</g>
</g>
<!-- Node1&#45;&gt;Node2 -->
<g id="edge1_Node000001_Node000002" class="edge">
<title>Node1&#45;&gt;Node2</title>
<g id="a_edge1_Node000001_Node000002"><a xlink:title=" ">
<path fill="none" stroke="#63b8ff" d="M174.46,-49.48C182.85,-50.44 191.35,-51.41 199.75,-52.38"/>
<polygon fill="#63b8ff" stroke="#63b8ff" points="174.63,-45.97 164.3,-48.31 173.83,-52.93 174.63,-45.97"/>
</a>
</g>
</g>
<!-- Node3 -->
<g id="Node000003" class="node">
<title>Node3</title>
<g id="a_Node000003"><a xlink:href="classaas__standard__parser_1_1aid__parser_1_1NoAuthenticationDetails.html" target="_top" xlink:title="No authentication details.">
<polygon fill="white" stroke="#666666" points="380.5,-30 206.5,-30 206.5,0 380.5,0 380.5,-30"/>
<text text-anchor="start" x="214.5" y="-18" font-family="Helvetica,sans-Serif" font-size="10.00">aas_standard_parser.aid</text>
<text text-anchor="middle" x="293.5" y="-7" font-family="Helvetica,sans-Serif" font-size="10.00">_parser.NoAuthenticationDetails</text>
</a>
</g>
</g>
<!-- Node1&#45;&gt;Node3 -->
<g id="edge2_Node000001_Node000003" class="edge">
<title>Node1&#45;&gt;Node3</title>
<g id="a_edge2_Node000001_Node000003"><a xlink:title=" ">
<path fill="none" stroke="#63b8ff" d="M174.41,-28.53C185.04,-27.31 195.85,-26.07 206.4,-24.86"/>
<polygon fill="#63b8ff" stroke="#63b8ff" points="173.83,-25.07 164.3,-29.69 174.63,-32.03 173.83,-25.07"/>
</a>
</g>
</g>
</g>
</svg>
