<?xml version="1.0" encoding="UTF-8" standalone="no"?>
<!DOCTYPE svg PUBLIC "-//W3C//DTD SVG 1.1//EN"
 "http://www.w3.org/Graphics/SVG/1.1/DTD/svg11.dtd">
<!-- Generated by graphviz version 2.43.0 (0)
 -->
<!-- Title: aas_standard_parser.aimc_parser._get_reference_properties Pages: 1 -->
<svg width="807pt" height="49pt"
 viewBox="0.00 0.00 807.00 49.00" xmlns="http://www.w3.org/2000/svg" xmlns:xlink="http://www.w3.org/1999/xlink">
<g id="graph0" class="graph" transform="scale(1 1) rotate(0) translate(4 45)">
<title>aas_standard_parser.aimc_parser._get_reference_properties</title>
<!-- Node1 -->
<g id="Node000001" class="node">
<title>Node1</title>
<g id="a_Node000001"><a xlink:title=" ">
<polygon fill="#999999" stroke="#666666" points="799,-41 655,-41 655,0 799,0 799,-41"/>
<text text-anchor="start" x="663" y="-29" font-family="Helvetica,sans-Serif" font-size="10.00">aas_standard_parser.aimc</text>
<text text-anchor="start" x="663" y="-18" font-family="Helvetica,sans-Serif" font-size="10.00">_parser._get_reference</text>
<text text-anchor="middle" x="727" y="-7" font-family="Helvetica,sans-Serif" font-size="10.00">_properties</text>
</a>
</g>
</g>
<!-- Node2 -->
<g id="Node000002" class="node">
<title>Node2</title>
<g id="a_Node000002"><a xlink:href="namespaceaas__standard__parser_1_1aimc__parser.html#ab016468c203096559c2badb908cab29f" target="_top" xlink:title=" ">
<polygon fill="white" stroke="#666666" points="619,-41 475,-41 475,0 619,0 619,-41"/>
<text text-anchor="start" x="483" y="-29" font-family="Helvetica,sans-Serif" font-size="10.00">aas_standard_parser.aimc</text>
<text text-anchor="start" x="483" y="-18" font-family="Helvetica,sans-Serif" font-size="10.00">_parser._generate_source</text>
<text text-anchor="middle" x="547" y="-7" font-family="Helvetica,sans-Serif" font-size="10.00">_sink_relations</text>
</a>
</g>
</g>
<!-- Node1&#45;&gt;Node2 -->
<g id="edge1_Node000001_Node000002" class="edge">
<title>Node1&#45;&gt;Node2</title>
<g id="a_edge1_Node000001_Node000002"><a xlink:title=" ">
<path fill="none" stroke="#63b8ff" d="M644.83,-20.5C636.21,-20.5 627.49,-20.5 619,-20.5"/>
<polygon fill="#63b8ff" stroke="#63b8ff" points="644.88,-24 654.88,-20.5 644.88,-17 644.88,-24"/>
</a>
</g>
</g>
<!-- Node3 -->
<g id="Node000003" class="node">
<title>Node3</title>
<g id="a_Node000003"><a xlink:href="namespaceaas__standard__parser_1_1aimc__parser.html#afb69723e5c4160b7cf493336435ce4ce" target="_top" xlink:title="Parse a mapping configuration element.">
<polygon fill="white" stroke="#666666" points="439,-41 240,-41 240,0 439,0 439,-41"/>
<text text-anchor="start" x="248" y="-29" font-family="Helvetica,sans-Serif" font-size="10.00">aas_standard_parser.aimc</text>
<text text-anchor="start" x="248" y="-18" font-family="Helvetica,sans-Serif" font-size="10.00">_parser.parse_mapping_configuration</text>
<text text-anchor="middle" x="339.5" y="-7" font-family="Helvetica,sans-Serif" font-size="10.00">_element</text>
</a>
</g>
</g>
<!-- Node2&#45;&gt;Node3 -->
<g id="edge2_Node000002_Node000003" class="edge">
<title>Node2&#45;&gt;Node3</title>
<g id="a_edge2_Node000002_Node000003"><a xlink:title=" ">
<path fill="none" stroke="#63b8ff" d="M464.8,-20.5C456.34,-20.5 447.69,-20.5 439.07,-20.5"/>
<polygon fill="#63b8ff" stroke="#63b8ff" points="464.99,-24 474.99,-20.5 464.99,-17 464.99,-24"/>
</a>
</g>
</g>
<!-- Node4 -->
<g id="Node000004" class="node">
<title>Node4</title>
<g id="a_Node000004"><a xlink:href="namespaceaas__standard__parser_1_1aimc__parser.html#ae2cda8726f34a73499ebca6377ee46e2" target="_top" xlink:title="Parse all mapping configurations in the AIMC submodel.">
<polygon fill="white" stroke="#666666" points="204,-35.5 0,-35.5 0,-5.5 204,-5.5 204,-35.5"/>
<text text-anchor="start" x="8" y="-23.5" font-family="Helvetica,sans-Serif" font-size="10.00">aas_standard_parser.aimc</text>
<text text-anchor="middle" x="102" y="-12.5" font-family="Helvetica,sans-Serif" font-size="10.00">_parser.parse_mapping_configurations</text>
</a>
</g>
</g>
<!-- Node3&#45;&gt;Node4 -->
<g id="edge3_Node000003_Node000004" class="edge">
<title>Node3&#45;&gt;Node4</title>
<g id="a_edge3_Node000003_Node000004"><a xlink:title=" ">
<path fill="none" stroke="#63b8ff" d="M229.94,-20.5C221.35,-20.5 212.69,-20.5 204.14,-20.5"/>
<polygon fill="#63b8ff" stroke="#63b8ff" points="229.99,-24 239.99,-20.5 229.99,-17 229.99,-24"/>
</a>
</g>
</g>
</g>
</svg>
