<?xml version="1.0" encoding="UTF-8" standalone="no"?>
<!DOCTYPE svg PUBLIC "-//W3C//DTD SVG 1.1//EN"
 "http://www.w3.org/Graphics/SVG/1.1/DTD/svg11.dtd">
<!-- Generated by graphviz version 2.43.0 (0)
 -->
<!-- Title: aas_standard_parser.aimc_parser.parse_mapping_configurations Pages: 1 -->
<svg width="1031pt" height="167pt"
 viewBox="0.00 0.00 1031.00 167.00" xmlns="http://www.w3.org/2000/svg" xmlns:xlink="http://www.w3.org/1999/xlink">
<g id="graph0" class="graph" transform="scale(1 1) rotate(0) translate(4 163)">
<title>aas_standard_parser.aimc_parser.parse_mapping_configurations</title>
<!-- Node1 -->
<g id="Node000001" class="node">
<title>Node1</title>
<g id="a_Node000001"><a xlink:title="Parse all mapping configurations in the AIMC submodel.">
<polygon fill="#999999" stroke="#666666" points="204,-123.5 0,-123.5 0,-93.5 204,-93.5 204,-123.5"/>
<text text-anchor="start" x="8" y="-111.5" font-family="Helvetica,sans-Serif" font-size="10.00">aas_standard_parser.aimc</text>
<text text-anchor="middle" x="102" y="-100.5" font-family="Helvetica,sans-Serif" font-size="10.00">_parser.parse_mapping_configurations</text>
</a>
</g>
</g>
<!-- Node2 -->
<g id="Node000002" class="node">
<title>Node2</title>
<g id="a_Node000002"><a xlink:href="namespaceaas__standard__parser_1_1aimc__parser.html#ab040dd331c278ca30b0c92eb719234cf" target="_top" xlink:title="Get all mapping configurations from the AIMC submodel.">
<polygon fill="white" stroke="#666666" points="433.5,-159 245.5,-159 245.5,-118 433.5,-118 433.5,-159"/>
<text text-anchor="start" x="253.5" y="-147" font-family="Helvetica,sans-Serif" font-size="10.00">aas_standard_parser.aimc</text>
<text text-anchor="start" x="253.5" y="-136" font-family="Helvetica,sans-Serif" font-size="10.00">_parser.get_mapping_configuration</text>
<text text-anchor="middle" x="339.5" y="-125" font-family="Helvetica,sans-Serif" font-size="10.00">_elements</text>
</a>
</g>
</g>
<!-- Node1&#45;&gt;Node2 -->
<g id="edge1_Node000001_Node000002" class="edge">
<title>Node1&#45;&gt;Node2</title>
<g id="a_edge1_Node000001_Node000002"><a xlink:title=" ">
<path fill="none" stroke="#63b8ff" d="M204.24,-121.4C214.43,-122.7 224.79,-124.01 235.01,-125.32"/>
<polygon fill="#63b8ff" stroke="#63b8ff" points="234.8,-128.82 245.16,-126.61 235.68,-121.87 234.8,-128.82"/>
</a>
</g>
</g>
<!-- Node4 -->
<g id="Node000004" class="node">
<title>Node4</title>
<g id="a_Node000004"><a xlink:href="namespaceaas__standard__parser_1_1aimc__parser.html#afb69723e5c4160b7cf493336435ce4ce" target="_top" xlink:title="Parse a mapping configuration element.">
<polygon fill="white" stroke="#666666" points="439,-100 240,-100 240,-59 439,-59 439,-100"/>
<text text-anchor="start" x="248" y="-88" font-family="Helvetica,sans-Serif" font-size="10.00">aas_standard_parser.aimc</text>
<text text-anchor="start" x="248" y="-77" font-family="Helvetica,sans-Serif" font-size="10.00">_parser.parse_mapping_configuration</text>
<text text-anchor="middle" x="339.5" y="-66" font-family="Helvetica,sans-Serif" font-size="10.00">_element</text>
</a>
</g>
</g>
<!-- Node1&#45;&gt;Node4 -->
<g id="edge3_Node000001_Node000004" class="edge">
<title>Node1&#45;&gt;Node4</title>
<g id="a_edge3_Node000001_Node000004"><a xlink:title=" ">
<path fill="none" stroke="#63b8ff" d="M204.24,-96.03C212.75,-94.98 221.38,-93.92 229.95,-92.87"/>
<polygon fill="#63b8ff" stroke="#63b8ff" points="230.46,-96.33 239.96,-91.63 229.61,-89.38 230.46,-96.33"/>
</a>
</g>
</g>
<!-- Node3 -->
<g id="Node000003" class="node">
<title>Node3</title>
<g id="a_Node000003"><a xlink:href="namespaceaas__standard__parser_1_1aimc__parser.html#a46e2a901cf0fbb8a9280390f13560daa" target="_top" xlink:title="Get the mapping configuration root submodel element collection from the AIMC submodel.">
<polygon fill="white" stroke="#666666" points="663,-159 475,-159 475,-118 663,-118 663,-159"/>
<text text-anchor="start" x="483" y="-147" font-family="Helvetica,sans-Serif" font-size="10.00">aas_standard_parser.aimc</text>
<text text-anchor="start" x="483" y="-136" font-family="Helvetica,sans-Serif" font-size="10.00">_parser.get_mapping_configuration</text>
<text text-anchor="middle" x="569" y="-125" font-family="Helvetica,sans-Serif" font-size="10.00">_root_element</text>
</a>
</g>
</g>
<!-- Node2&#45;&gt;Node3 -->
<g id="edge2_Node000002_Node000003" class="edge">
<title>Node2&#45;&gt;Node3</title>
<g id="a_edge2_Node000002_Node000003"><a xlink:title=" ">
<path fill="none" stroke="#63b8ff" d="M433.69,-138.5C443.9,-138.5 454.35,-138.5 464.68,-138.5"/>
<polygon fill="#63b8ff" stroke="#63b8ff" points="464.96,-142 474.96,-138.5 464.96,-135 464.96,-142"/>
</a>
</g>
</g>
<!-- Node5 -->
<g id="Node000005" class="node">
<title>Node5</title>
<g id="a_Node000005"><a xlink:href="namespaceaas__standard__parser_1_1aimc__parser.html#ab016468c203096559c2badb908cab29f" target="_top" xlink:title=" ">
<polygon fill="white" stroke="#666666" points="641,-100 497,-100 497,-59 641,-59 641,-100"/>
<text text-anchor="start" x="505" y="-88" font-family="Helvetica,sans-Serif" font-size="10.00">aas_standard_parser.aimc</text>
<text text-anchor="start" x="505" y="-77" font-family="Helvetica,sans-Serif" font-size="10.00">_parser._generate_source</text>
<text text-anchor="middle" x="569" y="-66" font-family="Helvetica,sans-Serif" font-size="10.00">_sink_relations</text>
</a>
</g>
</g>
<!-- Node4&#45;&gt;Node5 -->
<g id="edge4_Node000004_Node000005" class="edge">
<title>Node4&#45;&gt;Node5</title>
<g id="a_edge4_Node000004_Node000005"><a xlink:title=" ">
<path fill="none" stroke="#63b8ff" d="M439.29,-79.5C454.98,-79.5 471.05,-79.5 486.29,-79.5"/>
<polygon fill="#63b8ff" stroke="#63b8ff" points="486.69,-83 496.69,-79.5 486.69,-76 486.69,-83"/>
</a>
</g>
</g>
<!-- Node8 -->
<g id="Node000008" class="node">
<title>Node8</title>
<g id="a_Node000008"><a xlink:href="namespaceaas__standard__parser_1_1aimc__parser.html#a6486b0ae2674841eb1561f5c733b1c01" target="_top" xlink:title="Get the interface reference ID from the mapping configuration element.">
<polygon fill="white" stroke="#666666" points="641,-41 497,-41 497,0 641,0 641,-41"/>
<text text-anchor="start" x="505" y="-29" font-family="Helvetica,sans-Serif" font-size="10.00">aas_standard_parser.aimc</text>
<text text-anchor="start" x="505" y="-18" font-family="Helvetica,sans-Serif" font-size="10.00">_parser._get_interface</text>
<text text-anchor="middle" x="569" y="-7" font-family="Helvetica,sans-Serif" font-size="10.00">_reference_element</text>
</a>
</g>
</g>
<!-- Node4&#45;&gt;Node8 -->
<g id="edge7_Node000004_Node000008" class="edge">
<title>Node4&#45;&gt;Node8</title>
<g id="a_edge7_Node000004_Node000008"><a xlink:title=" ">
<path fill="none" stroke="#63b8ff" d="M419.75,-58.95C441.43,-53.32 464.97,-47.22 486.76,-41.57"/>
<polygon fill="#63b8ff" stroke="#63b8ff" points="487.84,-44.91 496.64,-39.01 486.08,-38.13 487.84,-44.91"/>
</a>
</g>
</g>
<!-- Node6 -->
<g id="Node000006" class="node">
<title>Node6</title>
<g id="a_Node000006"><a xlink:href="namespaceaas__standard__parser_1_1aimc__parser.html#abc2d919da2f5d5f6d67921cdf0bf7ada" target="_top" xlink:title=" ">
<polygon fill="white" stroke="#666666" points="843,-100 699,-100 699,-59 843,-59 843,-100"/>
<text text-anchor="start" x="707" y="-88" font-family="Helvetica,sans-Serif" font-size="10.00">aas_standard_parser.aimc</text>
<text text-anchor="start" x="707" y="-77" font-family="Helvetica,sans-Serif" font-size="10.00">_parser._get_reference</text>
<text text-anchor="middle" x="771" y="-66" font-family="Helvetica,sans-Serif" font-size="10.00">_properties</text>
</a>
</g>
</g>
<!-- Node5&#45;&gt;Node6 -->
<g id="edge5_Node000005_Node000006" class="edge">
<title>Node5&#45;&gt;Node6</title>
<g id="a_edge5_Node000005_Node000006"><a xlink:title=" ">
<path fill="none" stroke="#63b8ff" d="M641.08,-79.5C656.46,-79.5 672.84,-79.5 688.58,-79.5"/>
<polygon fill="#63b8ff" stroke="#63b8ff" points="688.82,-83 698.82,-79.5 688.82,-76 688.82,-83"/>
</a>
</g>
</g>
<!-- Node7 -->
<g id="Node000007" class="node">
<title>Node7</title>
<g id="a_Node000007"><a xlink:href="namespaceaas__standard__parser_1_1aimc__parser.html#a331dfa790904ba66b0206794f1ce6822" target="_top" xlink:title="Get the parent path of a reference as a list of idShorts.">
<polygon fill="white" stroke="#666666" points="1023,-100 879,-100 879,-59 1023,-59 1023,-100"/>
<text text-anchor="start" x="887" y="-88" font-family="Helvetica,sans-Serif" font-size="10.00">aas_standard_parser.aimc</text>
<text text-anchor="start" x="887" y="-77" font-family="Helvetica,sans-Serif" font-size="10.00">_parser._get_reference</text>
<text text-anchor="middle" x="951" y="-66" font-family="Helvetica,sans-Serif" font-size="10.00">_parent_path</text>
</a>
</g>
</g>
<!-- Node6&#45;&gt;Node7 -->
<g id="edge6_Node000006_Node000007" class="edge">
<title>Node6&#45;&gt;Node7</title>
<g id="a_edge6_Node000006_Node000007"><a xlink:title=" ">
<path fill="none" stroke="#63b8ff" d="M843.12,-79.5C851.61,-79.5 860.33,-79.5 868.94,-79.5"/>
<polygon fill="#63b8ff" stroke="#63b8ff" points="869,-83 879,-79.5 869,-76 869,-83"/>
</a>
</g>
</g>
</g>
</svg>
