<?xml version="1.0" encoding="UTF-8" standalone="no"?>
<!DOCTYPE svg PUBLIC "-//W3C//DTD SVG 1.1//EN"
 "http://www.w3.org/Graphics/SVG/1.1/DTD/svg11.dtd">
<!-- Generated by graphviz version 2.43.0 (0)
 -->
<!-- Title: aas_standard_parser.descriptor_json_helper.parse_descriptor Pages: 1 -->
<svg width="598pt" height="134pt"
 viewBox="0.00 0.00 598.00 134.00" xmlns="http://www.w3.org/2000/svg" xmlns:xlink="http://www.w3.org/1999/xlink">
<g id="graph0" class="graph" transform="scale(1 1) rotate(0) translate(4 130)">
<title>aas_standard_parser.descriptor_json_helper.parse_descriptor</title>
<!-- Node1 -->
<g id="Node000001" class="node">
<title>Node1</title>
<g id="a_Node000001"><a xlink:title="Parse the descriptor data into a DescriptorData object.">
<polygon fill="#999999" stroke="#666666" points="169,-78 0,-78 0,-48 169,-48 169,-78"/>
<text text-anchor="start" x="8" y="-66" font-family="Helvetica,sans-Serif" font-size="10.00">aas_standard_parser.descriptor</text>
<text text-anchor="middle" x="84.5" y="-55" font-family="Helvetica,sans-Serif" font-size="10.00">_json_helper.parse_descriptor</text>
</a>
</g>
</g>
<!-- Node2 -->
<g id="Node000002" class="node">
<title>Node2</title>
<g id="a_Node000002"><a xlink:href="namespaceaas__standard__parser_1_1descriptor__json__helper.html#a288d16a8428760c0b6c7bde0a41e35eb" target="_top" xlink:title=" ">
<polygon fill="white" stroke="#666666" points="380,-126 210,-126 210,-96 380,-96 380,-126"/>
<text text-anchor="start" x="218" y="-114" font-family="Helvetica,sans-Serif" font-size="10.00">aas_standard_parser.descriptor</text>
<text text-anchor="middle" x="295" y="-103" font-family="Helvetica,sans-Serif" font-size="10.00">_json_helper._parse_multi_lang</text>
</a>
</g>
</g>
<!-- Node1&#45;&gt;Node2 -->
<g id="edge1_Node000001_Node000002" class="edge">
<title>Node1&#45;&gt;Node2</title>
<g id="a_edge1_Node000001_Node000002"><a xlink:title=" ">
<path fill="none" stroke="#63b8ff" d="M150.9,-78.06C172.54,-83.04 196.78,-88.62 219.08,-93.75"/>
<polygon fill="#63b8ff" stroke="#63b8ff" points="218.3,-97.16 228.83,-96 219.87,-90.34 218.3,-97.16"/>
</a>
</g>
</g>
<!-- Node3 -->
<g id="Node000003" class="node">
<title>Node3</title>
<g id="a_Node000003"><a xlink:href="namespaceaas__standard__parser_1_1descriptor__json__helper.html#a8aee330f96818125e0a9802dcabb93f5" target="_top" xlink:title="Get all hrefs from a descriptor&#39;s endpoints.">
<polygon fill="white" stroke="#666666" points="382,-78 208,-78 208,-48 382,-48 382,-78"/>
<text text-anchor="start" x="216" y="-66" font-family="Helvetica,sans-Serif" font-size="10.00">aas_standard_parser.descriptor</text>
<text text-anchor="middle" x="295" y="-55" font-family="Helvetica,sans-Serif" font-size="10.00">_json_helper.get_endpoint_hrefs</text>
</a>
</g>
</g>
<!-- Node1&#45;&gt;Node3 -->
<g id="edge2_Node000001_Node000003" class="edge">
<title>Node1&#45;&gt;Node3</title>
<g id="a_edge2_Node000001_Node000003"><a xlink:title=" ">
<path fill="none" stroke="#63b8ff" d="M169.1,-63C178.61,-63 188.35,-63 197.99,-63"/>
<polygon fill="#63b8ff" stroke="#63b8ff" points="197.99,-66.5 207.99,-63 197.99,-59.5 197.99,-66.5"/>
</a>
</g>
</g>
<!-- Node5 -->
<g id="Node000005" class="node">
<title>Node5</title>
<g id="a_Node000005"><a xlink:href="namespaceaas__standard__parser_1_1descriptor__json__helper.html#a2165085ae86a1f9d9c70959d76a8d4ed" target="_top" xlink:title="Parse the endpoint href into its components.">
<polygon fill="white" stroke="#666666" points="385,-30 205,-30 205,0 385,0 385,-30"/>
<text text-anchor="start" x="213" y="-18" font-family="Helvetica,sans-Serif" font-size="10.00">aas_standard_parser.descriptor</text>
<text text-anchor="middle" x="295" y="-7" font-family="Helvetica,sans-Serif" font-size="10.00">_json_helper.parse_endpoint_href</text>
</a>
</g>
</g>
<!-- Node1&#45;&gt;Node5 -->
<g id="edge4_Node000001_Node000005" class="edge">
<title>Node1&#45;&gt;Node5</title>
<g id="a_edge4_Node000001_Node000005"><a xlink:title=" ">
<path fill="none" stroke="#63b8ff" d="M150.9,-47.94C172.54,-42.96 196.78,-37.38 219.08,-32.25"/>
<polygon fill="#63b8ff" stroke="#63b8ff" points="219.87,-35.66 228.83,-30 218.3,-28.84 219.87,-35.66"/>
</a>
</g>
</g>
<!-- Node4 -->
<g id="Node000004" class="node">
<title>Node4</title>
<g id="a_Node000004"><a xlink:href="namespaceaas__standard__parser_1_1descriptor__json__helper.html#a2ad9a975fcabe7b611c0581ab91e9a4d" target="_top" xlink:title="Get all endpoints from a descriptor.">
<polygon fill="white" stroke="#666666" points="590,-78 421,-78 421,-48 590,-48 590,-78"/>
<text text-anchor="start" x="429" y="-66" font-family="Helvetica,sans-Serif" font-size="10.00">aas_standard_parser.descriptor</text>
<text text-anchor="middle" x="505.5" y="-55" font-family="Helvetica,sans-Serif" font-size="10.00">_json_helper.get_endpoints</text>
</a>
</g>
</g>
<!-- Node3&#45;&gt;Node4 -->
<g id="edge3_Node000003_Node000004" class="edge">
<title>Node3&#45;&gt;Node4</title>
<g id="a_edge3_Node000003_Node000004"><a xlink:title=" ">
<path fill="none" stroke="#63b8ff" d="M382.01,-63C391.4,-63 400.99,-63 410.48,-63"/>
<polygon fill="#63b8ff" stroke="#63b8ff" points="410.7,-66.5 420.7,-63 410.7,-59.5 410.7,-66.5"/>
</a>
</g>
</g>
</g>
</svg>
