<?xml version="1.0" encoding="UTF-8" standalone="no"?>
<!DOCTYPE svg PUBLIC "-//W3C//DTD SVG 1.1//EN"
 "http://www.w3.org/Graphics/SVG/1.1/DTD/svg11.dtd">
<!-- Generated by graphviz version 2.43.0 (0)
 -->
<!-- Title: aas_standard_parser.descriptor_json_helper.get_endpoints Pages: 1 -->
<svg width="801pt" height="98pt"
 viewBox="0.00 0.00 801.00 97.50" xmlns="http://www.w3.org/2000/svg" xmlns:xlink="http://www.w3.org/1999/xlink">
<g id="graph0" class="graph" transform="scale(1 1) rotate(0) translate(4 93.5)">
<title>aas_standard_parser.descriptor_json_helper.get_endpoints</title>
<!-- Node1 -->
<g id="Node000001" class="node">
<title>Node1</title>
<g id="a_Node000001"><a xlink:title="Get all endpoints from a descriptor.">
<polygon fill="#999999" stroke="#666666" points="793,-57 624,-57 624,-27 793,-27 793,-57"/>
<text text-anchor="start" x="632" y="-45" font-family="Helvetica,sans-Serif" font-size="10.00">aas_standard_parser.descriptor</text>
<text text-anchor="middle" x="708.5" y="-34" font-family="Helvetica,sans-Serif" font-size="10.00">_json_helper.get_endpoints</text>
</a>
</g>
</g>
<!-- Node2 -->
<g id="Node000002" class="node">
<title>Node2</title>
<g id="a_Node000002"><a xlink:href="namespaceaas__standard__parser_1_1descriptor__json__helper.html#a11e9196b0a3995a2693ec43e6b699789" target="_top" xlink:title="Get the endpoint from a descriptor&#39;s endpoints by index.">
<polygon fill="white" stroke="#666666" points="585.5,-89.5 416.5,-89.5 416.5,-48.5 585.5,-48.5 585.5,-89.5"/>
<text text-anchor="start" x="424.5" y="-77.5" font-family="Helvetica,sans-Serif" font-size="10.00">aas_standard_parser.descriptor</text>
<text text-anchor="start" x="424.5" y="-66.5" font-family="Helvetica,sans-Serif" font-size="10.00">_json_helper.get_endpoint</text>
<text text-anchor="middle" x="501" y="-55.5" font-family="Helvetica,sans-Serif" font-size="10.00">_by_index</text>
</a>
</g>
</g>
<!-- Node1&#45;&gt;Node2 -->
<g id="edge1_Node000001_Node000002" class="edge">
<title>Node1&#45;&gt;Node2</title>
<g id="a_edge1_Node000001_Node000002"><a xlink:title=" ">
<path fill="none" stroke="#63b8ff" d="M613.75,-54.32C604.33,-55.55 594.81,-56.81 585.51,-58.03"/>
<polygon fill="#63b8ff" stroke="#63b8ff" points="614.46,-57.75 623.92,-52.98 613.54,-50.81 614.46,-57.75"/>
</a>
</g>
</g>
<!-- Node5 -->
<g id="Node000005" class="node">
<title>Node5</title>
<g id="a_Node000005"><a xlink:href="namespaceaas__standard__parser_1_1descriptor__json__helper.html#a8aee330f96818125e0a9802dcabb93f5" target="_top" xlink:title="Get all hrefs from a descriptor&#39;s endpoints.">
<polygon fill="white" stroke="#666666" points="588,-30 414,-30 414,0 588,0 588,-30"/>
<text text-anchor="start" x="422" y="-18" font-family="Helvetica,sans-Serif" font-size="10.00">aas_standard_parser.descriptor</text>
<text text-anchor="middle" x="501" y="-7" font-family="Helvetica,sans-Serif" font-size="10.00">_json_helper.get_endpoint_hrefs</text>
</a>
</g>
</g>
<!-- Node1&#45;&gt;Node5 -->
<g id="edge4_Node000001_Node000005" class="edge">
<title>Node1&#45;&gt;Node5</title>
<g id="a_edge4_Node000001_Node000005"><a xlink:title=" ">
<path fill="none" stroke="#63b8ff" d="M613.91,-29.7C605.34,-28.58 596.68,-27.44 588.18,-26.32"/>
<polygon fill="#63b8ff" stroke="#63b8ff" points="613.54,-33.19 623.92,-31.02 614.46,-26.25 613.54,-33.19"/>
</a>
</g>
</g>
<!-- Node3 -->
<g id="Node000003" class="node">
<title>Node3</title>
<g id="a_Node000003"><a xlink:href="namespaceaas__standard__parser_1_1descriptor__json__helper.html#af32f5c67f31caa58dc46ebc2091166b6" target="_top" xlink:title="Get the protocol information from a descriptor&#39;s endpoints by index.">
<polygon fill="white" stroke="#666666" points="378,-89.5 205,-89.5 205,-48.5 378,-48.5 378,-89.5"/>
<text text-anchor="start" x="213" y="-77.5" font-family="Helvetica,sans-Serif" font-size="10.00">aas_standard_parser.descriptor</text>
<text text-anchor="start" x="213" y="-66.5" font-family="Helvetica,sans-Serif" font-size="10.00">_json_helper.get_endpoint</text>
<text text-anchor="middle" x="291.5" y="-55.5" font-family="Helvetica,sans-Serif" font-size="10.00">_protocol_information_by_index</text>
</a>
</g>
</g>
<!-- Node2&#45;&gt;Node3 -->
<g id="edge2_Node000002_Node000003" class="edge">
<title>Node2&#45;&gt;Node3</title>
<g id="a_edge2_Node000002_Node000003"><a xlink:title=" ">
<path fill="none" stroke="#63b8ff" d="M406.37,-69C396.99,-69 387.5,-69 378.2,-69"/>
<polygon fill="#63b8ff" stroke="#63b8ff" points="406.5,-72.5 416.5,-69 406.5,-65.5 406.5,-72.5"/>
</a>
</g>
</g>
<!-- Node4 -->
<g id="Node000004" class="node">
<title>Node4</title>
<g id="a_Node000004"><a xlink:href="namespaceaas__standard__parser_1_1descriptor__json__helper.html#abc73a4fe4db6926d2c0aa70e287b1ad0" target="_top" xlink:title="Get the href from a descriptor&#39;s endpoints.">
<polygon fill="white" stroke="#666666" points="169,-89.5 0,-89.5 0,-48.5 169,-48.5 169,-89.5"/>
<text text-anchor="start" x="8" y="-77.5" font-family="Helvetica,sans-Serif" font-size="10.00">aas_standard_parser.descriptor</text>
<text text-anchor="start" x="8" y="-66.5" font-family="Helvetica,sans-Serif" font-size="10.00">_json_helper.get_endpoint</text>
<text text-anchor="middle" x="84.5" y="-55.5" font-family="Helvetica,sans-Serif" font-size="10.00">_href_by_index</text>
</a>
</g>
</g>
<!-- Node3&#45;&gt;Node4 -->
<g id="edge3_Node000003_Node000004" class="edge">
<title>Node3&#45;&gt;Node4</title>
<g id="a_edge3_Node000003_Node000004"><a xlink:title=" ">
<path fill="none" stroke="#63b8ff" d="M194.51,-69C186.08,-69 177.59,-69 169.26,-69"/>
<polygon fill="#63b8ff" stroke="#63b8ff" points="194.75,-72.5 204.75,-69 194.75,-65.5 194.75,-72.5"/>
</a>
</g>
</g>
</g>
</svg>
