<?xml version="1.0" encoding="UTF-8" standalone="no"?>
<!DOCTYPE svg PUBLIC "-//W3C//DTD SVG 1.1//EN"
 "http://www.w3.org/Graphics/SVG/1.1/DTD/svg11.dtd">
<!-- Generated by graphviz version 2.43.0 (0)
 -->
<!-- Title: tests.test_aimc_parser._check_relations_sink Pages: 1 -->
<svg width="534pt" height="98pt"
 viewBox="0.00 0.00 534.00 97.50" xmlns="http://www.w3.org/2000/svg" xmlns:xlink="http://www.w3.org/1999/xlink">
<g id="graph0" class="graph" transform="scale(1 1) rotate(0) translate(4 93.5)">
<title>tests.test_aimc_parser._check_relations_sink</title>
<!-- Node1 -->
<g id="Node000001" class="node">
<title>Node1</title>
<g id="a_Node000001"><a xlink:title=" ">
<polygon fill="#999999" stroke="#666666" points="526,-57 396,-57 396,-27 526,-27 526,-57"/>
<text text-anchor="start" x="404" y="-45" font-family="Helvetica,sans-Serif" font-size="10.00">tests.test_aimc_parser.</text>
<text text-anchor="middle" x="461" y="-34" font-family="Helvetica,sans-Serif" font-size="10.00">_check_relations_sink</text>
</a>
</g>
</g>
<!-- Node2 -->
<g id="Node000002" class="node">
<title>Node2</title>
<g id="a_Node000002"><a xlink:href="namespacetests_1_1test__aimc__parser.html#a2d9a454c98632424f213146d3ec87aaa" target="_top" xlink:title=" ">
<polygon fill="white" stroke="#666666" points="360,-57 230,-57 230,-27 360,-27 360,-57"/>
<text text-anchor="start" x="238" y="-45" font-family="Helvetica,sans-Serif" font-size="10.00">tests.test_aimc_parser.</text>
<text text-anchor="middle" x="295" y="-34" font-family="Helvetica,sans-Serif" font-size="10.00">_check_relations</text>
</a>
</g>
</g>
<!-- Node1&#45;&gt;Node2 -->
<g id="edge1_Node000001_Node000002" class="edge">
<title>Node1&#45;&gt;Node2</title>
<g id="a_edge1_Node000001_Node000002"><a xlink:title=" ">
<path fill="none" stroke="#63b8ff" d="M385.44,-42C377,-42 368.45,-42 360.16,-42"/>
<polygon fill="#63b8ff" stroke="#63b8ff" points="385.65,-45.5 395.65,-42 385.65,-38.5 385.65,-45.5"/>
</a>
</g>
</g>
<!-- Node3 -->
<g id="Node000003" class="node">
<title>Node3</title>
<g id="a_Node000003"><a xlink:href="namespacetests_1_1test__aimc__parser.html#a7f77193d26a0bfd55802b8e5e8614192" target="_top" xlink:title=" ">
<polygon fill="white" stroke="#666666" points="191.5,-89.5 2.5,-89.5 2.5,-48.5 191.5,-48.5 191.5,-89.5"/>
<text text-anchor="start" x="10.5" y="-77.5" font-family="Helvetica,sans-Serif" font-size="10.00">tests.test_aimc_parser.test</text>
<text text-anchor="start" x="10.5" y="-66.5" font-family="Helvetica,sans-Serif" font-size="10.00">_003_parse_mapping_configuration</text>
<text text-anchor="middle" x="97" y="-55.5" font-family="Helvetica,sans-Serif" font-size="10.00">_element</text>
</a>
</g>
</g>
<!-- Node2&#45;&gt;Node3 -->
<g id="edge2_Node000002_Node000003" class="edge">
<title>Node2&#45;&gt;Node3</title>
<g id="a_edge2_Node000002_Node000003"><a xlink:title=" ">
<path fill="none" stroke="#63b8ff" d="M219.68,-52.24C210.57,-53.49 201.17,-54.79 191.82,-56.08"/>
<polygon fill="#63b8ff" stroke="#63b8ff" points="220.39,-55.67 229.82,-50.84 219.44,-48.74 220.39,-55.67"/>
</a>
</g>
</g>
<!-- Node4 -->
<g id="Node000004" class="node">
<title>Node4</title>
<g id="a_Node000004"><a xlink:href="namespacetests_1_1test__aimc__parser.html#a751e70238d9daf41ea9037c20037987a" target="_top" xlink:title=" ">
<polygon fill="white" stroke="#666666" points="194,-30 0,-30 0,0 194,0 194,-30"/>
<text text-anchor="start" x="8" y="-18" font-family="Helvetica,sans-Serif" font-size="10.00">tests.test_aimc_parser.test</text>
<text text-anchor="middle" x="97" y="-7" font-family="Helvetica,sans-Serif" font-size="10.00">_004_parse_mapping_configurations</text>
</a>
</g>
</g>
<!-- Node2&#45;&gt;Node4 -->
<g id="edge3_Node000002_Node000004" class="edge">
<title>Node2&#45;&gt;Node4</title>
<g id="a_edge3_Node000002_Node000004"><a xlink:title=" ">
<path fill="none" stroke="#63b8ff" d="M219.79,-31.78C211.45,-30.63 202.87,-29.45 194.3,-28.27"/>
<polygon fill="#63b8ff" stroke="#63b8ff" points="219.44,-35.26 229.82,-33.16 220.39,-28.33 219.44,-35.26"/>
</a>
</g>
</g>
</g>
</svg>
