<?xml version="1.0" encoding="UTF-8" standalone="no"?>
<!DOCTYPE svg PUBLIC "-//W3C//DTD SVG 1.1//EN"
 "http://www.w3.org/Graphics/SVG/1.1/DTD/svg11.dtd">
<!-- Generated by graphviz version 2.43.0 (0)
 -->
<!-- Title: tests.test_aimc_parser._check_relations Pages: 1 -->
<svg width="315pt" height="134pt"
 viewBox="0.00 0.00 315.00 134.00" xmlns="http://www.w3.org/2000/svg" xmlns:xlink="http://www.w3.org/1999/xlink">
<g id="graph0" class="graph" transform="scale(1 1) rotate(0) translate(4 130)">
<title>tests.test_aimc_parser._check_relations</title>
<!-- Node1 -->
<g id="Node000001" class="node">
<title>Node1</title>
<g id="a_Node000001"><a xlink:title=" ">
<polygon fill="#999999" stroke="#666666" points="130,-78 0,-78 0,-48 130,-48 130,-78"/>
<text text-anchor="start" x="8" y="-66" font-family="Helvetica,sans-Serif" font-size="10.00">tests.test_aimc_parser.</text>
<text text-anchor="middle" x="65" y="-55" font-family="Helvetica,sans-Serif" font-size="10.00">_check_relations</text>
</a>
</g>
</g>
<!-- Node2 -->
<g id="Node000002" class="node">
<title>Node2</title>
<g id="a_Node000002"><a xlink:href="namespacetests_1_1test__aimc__parser.html#a81eb0c796de00ce6627d716bd8c7e531" target="_top" xlink:title=" ">
<polygon fill="white" stroke="#666666" points="307,-126 166,-126 166,-96 307,-96 307,-126"/>
<text text-anchor="start" x="174" y="-114" font-family="Helvetica,sans-Serif" font-size="10.00">tests.test_aimc_parser.</text>
<text text-anchor="middle" x="236.5" y="-103" font-family="Helvetica,sans-Serif" font-size="10.00">_check_relation_methods</text>
</a>
</g>
</g>
<!-- Node1&#45;&gt;Node2 -->
<g id="edge1_Node000001_Node000002" class="edge">
<title>Node1&#45;&gt;Node2</title>
<g id="a_edge1_Node000001_Node000002"><a xlink:title=" ">
<path fill="none" stroke="#63b8ff" d="M119.17,-78.06C136.2,-82.88 155.23,-88.27 172.88,-93.27"/>
<polygon fill="#63b8ff" stroke="#63b8ff" points="171.95,-96.64 182.52,-96 173.85,-89.91 171.95,-96.64"/>
</a>
</g>
</g>
<!-- Node3 -->
<g id="Node000003" class="node">
<title>Node3</title>
<g id="a_Node000003"><a xlink:href="namespacetests_1_1test__aimc__parser.html#aa1ce49a267aa908a04126e40f193e66e" target="_top" xlink:title=" ">
<polygon fill="white" stroke="#666666" points="301.5,-78 171.5,-78 171.5,-48 301.5,-48 301.5,-78"/>
<text text-anchor="start" x="179.5" y="-66" font-family="Helvetica,sans-Serif" font-size="10.00">tests.test_aimc_parser.</text>
<text text-anchor="middle" x="236.5" y="-55" font-family="Helvetica,sans-Serif" font-size="10.00">_check_relations_sink</text>
</a>
</g>
</g>
<!-- Node1&#45;&gt;Node3 -->
<g id="edge2_Node000001_Node000003" class="edge">
<title>Node1&#45;&gt;Node3</title>
<g id="a_edge2_Node000001_Node000003"><a xlink:title=" ">
<path fill="none" stroke="#63b8ff" d="M130.08,-63C140.21,-63 150.75,-63 161.09,-63"/>
<polygon fill="#63b8ff" stroke="#63b8ff" points="161.33,-66.5 171.33,-63 161.33,-59.5 161.33,-66.5"/>
</a>
</g>
</g>
<!-- Node4 -->
<g id="Node000004" class="node">
<title>Node4</title>
<g id="a_Node000004"><a xlink:href="namespacetests_1_1test__aimc__parser.html#a55c87d08249486a7f877c1ba5384b402" target="_top" xlink:title=" ">
<polygon fill="white" stroke="#666666" points="304.5,-30 168.5,-30 168.5,0 304.5,0 304.5,-30"/>
<text text-anchor="start" x="176.5" y="-18" font-family="Helvetica,sans-Serif" font-size="10.00">tests.test_aimc_parser.</text>
<text text-anchor="middle" x="236.5" y="-7" font-family="Helvetica,sans-Serif" font-size="10.00">_check_relations_source</text>
</a>
</g>
</g>
<!-- Node1&#45;&gt;Node4 -->
<g id="edge3_Node000001_Node000004" class="edge">
<title>Node1&#45;&gt;Node4</title>
<g id="a_edge3_Node000001_Node000004"><a xlink:title=" ">
<path fill="none" stroke="#63b8ff" d="M119.17,-47.94C136.2,-43.12 155.23,-37.73 172.88,-32.73"/>
<polygon fill="#63b8ff" stroke="#63b8ff" points="173.85,-36.09 182.52,-30 171.95,-29.36 173.85,-36.09"/>
</a>
</g>
</g>
</g>
</svg>
