<?xml version="1.0" encoding="UTF-8" standalone="no"?>
<!DOCTYPE svg PUBLIC "-//W3C//DTD SVG 1.1//EN"
 "http://www.w3.org/Graphics/SVG/1.1/DTD/svg11.dtd">
<!-- Generated by graphviz version 2.43.0 (0)
 -->
<!-- Title: aas_standard_parser.descriptor_json_helper.get_endpoint_href_by_index Pages: 1 -->
<svg width="796pt" height="49pt"
 viewBox="0.00 0.00 796.00 49.00" xmlns="http://www.w3.org/2000/svg" xmlns:xlink="http://www.w3.org/1999/xlink">
<g id="graph0" class="graph" transform="scale(1 1) rotate(0) translate(4 45)">
<title>aas_standard_parser.descriptor_json_helper.get_endpoint_href_by_index</title>
<!-- Node1 -->
<g id="Node000001" class="node">
<title>Node1</title>
<g id="a_Node000001"><a xlink:title="Get the href from a descriptor&#39;s endpoints.">
<polygon fill="#999999" stroke="#666666" points="169,-41 0,-41 0,0 169,0 169,-41"/>
<text text-anchor="start" x="8" y="-29" font-family="Helvetica,sans-Serif" font-size="10.00">aas_standard_parser.descriptor</text>
<text text-anchor="start" x="8" y="-18" font-family="Helvetica,sans-Serif" font-size="10.00">_json_helper.get_endpoint</text>
<text text-anchor="middle" x="84.5" y="-7" font-family="Helvetica,sans-Serif" font-size="10.00">_href_by_index</text>
</a>
</g>
</g>
<!-- Node2 -->
<g id="Node000002" class="node">
<title>Node2</title>
<g id="a_Node000002"><a xlink:href="namespaceaas__standard__parser_1_1descriptor__json__helper.html#af32f5c67f31caa58dc46ebc2091166b6" target="_top" xlink:title="Get the protocol information from a descriptor&#39;s endpoints by index.">
<polygon fill="white" stroke="#666666" points="378,-41 205,-41 205,0 378,0 378,-41"/>
<text text-anchor="start" x="213" y="-29" font-family="Helvetica,sans-Serif" font-size="10.00">aas_standard_parser.descriptor</text>
<text text-anchor="start" x="213" y="-18" font-family="Helvetica,sans-Serif" font-size="10.00">_json_helper.get_endpoint</text>
<text text-anchor="middle" x="291.5" y="-7" font-family="Helvetica,sans-Serif" font-size="10.00">_protocol_information_by_index</text>
</a>
</g>
</g>
<!-- Node1&#45;&gt;Node2 -->
<g id="edge1_Node000001_Node000002" class="edge">
<title>Node1&#45;&gt;Node2</title>
<g id="a_edge1_Node000001_Node000002"><a xlink:title=" ">
<path fill="none" stroke="#63b8ff" d="M169.18,-20.5C177.52,-20.5 186.04,-20.5 194.49,-20.5"/>
<polygon fill="#63b8ff" stroke="#63b8ff" points="194.76,-24 204.76,-20.5 194.76,-17 194.76,-24"/>
</a>
</g>
</g>
<!-- Node3 -->
<g id="Node000003" class="node">
<title>Node3</title>
<g id="a_Node000003"><a xlink:href="namespaceaas__standard__parser_1_1descriptor__json__helper.html#a11e9196b0a3995a2693ec43e6b699789" target="_top" xlink:title="Get the endpoint from a descriptor&#39;s endpoints by index.">
<polygon fill="white" stroke="#666666" points="583,-41 414,-41 414,0 583,0 583,-41"/>
<text text-anchor="start" x="422" y="-29" font-family="Helvetica,sans-Serif" font-size="10.00">aas_standard_parser.descriptor</text>
<text text-anchor="start" x="422" y="-18" font-family="Helvetica,sans-Serif" font-size="10.00">_json_helper.get_endpoint</text>
<text text-anchor="middle" x="498.5" y="-7" font-family="Helvetica,sans-Serif" font-size="10.00">_by_index</text>
</a>
</g>
</g>
<!-- Node2&#45;&gt;Node3 -->
<g id="edge2_Node000002_Node000003" class="edge">
<title>Node2&#45;&gt;Node3</title>
<g id="a_edge2_Node000002_Node000003"><a xlink:title=" ">
<path fill="none" stroke="#63b8ff" d="M378.25,-20.5C386.6,-20.5 395.1,-20.5 403.52,-20.5"/>
<polygon fill="#63b8ff" stroke="#63b8ff" points="403.74,-24 413.74,-20.5 403.74,-17 403.74,-24"/>
</a>
</g>
</g>
<!-- Node4 -->
<g id="Node000004" class="node">
<title>Node4</title>
<g id="a_Node000004"><a xlink:href="namespaceaas__standard__parser_1_1descriptor__json__helper.html#a2ad9a975fcabe7b611c0581ab91e9a4d" target="_top" xlink:title="Get all endpoints from a descriptor.">
<polygon fill="white" stroke="#666666" points="788,-35.5 619,-35.5 619,-5.5 788,-5.5 788,-35.5"/>
<text text-anchor="start" x="627" y="-23.5" font-family="Helvetica,sans-Serif" font-size="10.00">aas_standard_parser.descriptor</text>
<text text-anchor="middle" x="703.5" y="-12.5" font-family="Helvetica,sans-Serif" font-size="10.00">_json_helper.get_endpoints</text>
</a>
</g>
</g>
<!-- Node3&#45;&gt;Node4 -->
<g id="edge3_Node000003_Node000004" class="edge">
<title>Node3&#45;&gt;Node4</title>
<g id="a_edge3_Node000003_Node000004"><a xlink:title=" ">
<path fill="none" stroke="#63b8ff" d="M583.24,-20.5C591.72,-20.5 600.37,-20.5 608.94,-20.5"/>
<polygon fill="#63b8ff" stroke="#63b8ff" points="608.95,-24 618.95,-20.5 608.95,-17 608.95,-24"/>
</a>
</g>
</g>
</g>
</svg>
