<?xml version="1.0" encoding="UTF-8" standalone="no"?>
<!DOCTYPE svg PUBLIC "-//W3C//DTD SVG 1.1//EN"
 "http://www.w3.org/Graphics/SVG/1.1/DTD/svg11.dtd">
<!-- Generated by graphviz version 2.43.0 (0)
 -->
<!-- Title: aas_standard_parser.aimc_parser.parse_mapping_configuration_element Pages: 1 -->
<svg width="747pt" height="108pt"
 viewBox="0.00 0.00 747.00 108.00" xmlns="http://www.w3.org/2000/svg" xmlns:xlink="http://www.w3.org/1999/xlink">
<g id="graph0" class="graph" transform="scale(1 1) rotate(0) translate(4 104)">
<title>aas_standard_parser.aimc_parser.parse_mapping_configuration_element</title>
<!-- Node1 -->
<g id="Node000001" class="node">
<title>Node1</title>
<g id="a_Node000001"><a xlink:title="Parse a mapping configuration element.">
<polygon fill="#999999" stroke="#666666" points="199,-70 0,-70 0,-29 199,-29 199,-70"/>
<text text-anchor="start" x="8" y="-58" font-family="Helvetica,sans-Serif" font-size="10.00">aas_standard_parser.aimc</text>
<text text-anchor="start" x="8" y="-47" font-family="Helvetica,sans-Serif" font-size="10.00">_parser.parse_mapping_configuration</text>
<text text-anchor="middle" x="99.5" y="-36" font-family="Helvetica,sans-Serif" font-size="10.00">_element</text>
</a>
</g>
</g>
<!-- Node2 -->
<g id="Node000002" class="node">
<title>Node2</title>
<g id="a_Node000002"><a xlink:href="namespaceaas__standard__parser_1_1aimc__parser.html#ab016468c203096559c2badb908cab29f" target="_top" xlink:title=" ">
<polygon fill="white" stroke="#666666" points="379,-100 235,-100 235,-59 379,-59 379,-100"/>
<text text-anchor="start" x="243" y="-88" font-family="Helvetica,sans-Serif" font-size="10.00">aas_standard_parser.aimc</text>
<text text-anchor="start" x="243" y="-77" font-family="Helvetica,sans-Serif" font-size="10.00">_parser._generate_source</text>
<text text-anchor="middle" x="307" y="-66" font-family="Helvetica,sans-Serif" font-size="10.00">_sink_relations</text>
</a>
</g>
</g>
<!-- Node1&#45;&gt;Node2 -->
<g id="edge1_Node000001_Node000002" class="edge">
<title>Node1&#45;&gt;Node2</title>
<g id="a_edge1_Node000001_Node000002"><a xlink:title=" ">
<path fill="none" stroke="#63b8ff" d="M199.04,-63.88C207.6,-65.14 216.21,-66.39 224.62,-67.62"/>
<polygon fill="#63b8ff" stroke="#63b8ff" points="224.36,-71.12 234.76,-69.1 225.37,-64.19 224.36,-71.12"/>
</a>
</g>
</g>
<!-- Node5 -->
<g id="Node000005" class="node">
<title>Node5</title>
<g id="a_Node000005"><a xlink:href="namespaceaas__standard__parser_1_1aimc__parser.html#a6486b0ae2674841eb1561f5c733b1c01" target="_top" xlink:title="Get the interface reference ID from the mapping configuration element.">
<polygon fill="white" stroke="#666666" points="379,-41 235,-41 235,0 379,0 379,-41"/>
<text text-anchor="start" x="243" y="-29" font-family="Helvetica,sans-Serif" font-size="10.00">aas_standard_parser.aimc</text>
<text text-anchor="start" x="243" y="-18" font-family="Helvetica,sans-Serif" font-size="10.00">_parser._get_interface</text>
<text text-anchor="middle" x="307" y="-7" font-family="Helvetica,sans-Serif" font-size="10.00">_reference_element</text>
</a>
</g>
</g>
<!-- Node1&#45;&gt;Node5 -->
<g id="edge4_Node000001_Node000005" class="edge">
<title>Node1&#45;&gt;Node5</title>
<g id="a_edge4_Node000001_Node000005"><a xlink:title=" ">
<path fill="none" stroke="#63b8ff" d="M199.04,-35.59C207.6,-34.39 216.21,-33.17 224.62,-31.98"/>
<polygon fill="#63b8ff" stroke="#63b8ff" points="225.35,-35.42 234.76,-30.55 224.37,-28.49 225.35,-35.42"/>
</a>
</g>
</g>
<!-- Node3 -->
<g id="Node000003" class="node">
<title>Node3</title>
<g id="a_Node000003"><a xlink:href="namespaceaas__standard__parser_1_1aimc__parser.html#abc2d919da2f5d5f6d67921cdf0bf7ada" target="_top" xlink:title=" ">
<polygon fill="white" stroke="#666666" points="559,-100 415,-100 415,-59 559,-59 559,-100"/>
<text text-anchor="start" x="423" y="-88" font-family="Helvetica,sans-Serif" font-size="10.00">aas_standard_parser.aimc</text>
<text text-anchor="start" x="423" y="-77" font-family="Helvetica,sans-Serif" font-size="10.00">_parser._get_reference</text>
<text text-anchor="middle" x="487" y="-66" font-family="Helvetica,sans-Serif" font-size="10.00">_properties</text>
</a>
</g>
</g>
<!-- Node2&#45;&gt;Node3 -->
<g id="edge2_Node000002_Node000003" class="edge">
<title>Node2&#45;&gt;Node3</title>
<g id="a_edge2_Node000002_Node000003"><a xlink:title=" ">
<path fill="none" stroke="#63b8ff" d="M379.12,-79.5C387.61,-79.5 396.33,-79.5 404.94,-79.5"/>
<polygon fill="#63b8ff" stroke="#63b8ff" points="405,-83 415,-79.5 405,-76 405,-83"/>
</a>
</g>
</g>
<!-- Node4 -->
<g id="Node000004" class="node">
<title>Node4</title>
<g id="a_Node000004"><a xlink:href="namespaceaas__standard__parser_1_1aimc__parser.html#a331dfa790904ba66b0206794f1ce6822" target="_top" xlink:title="Get the parent path of a reference as a list of idShorts.">
<polygon fill="white" stroke="#666666" points="739,-100 595,-100 595,-59 739,-59 739,-100"/>
<text text-anchor="start" x="603" y="-88" font-family="Helvetica,sans-Serif" font-size="10.00">aas_standard_parser.aimc</text>
<text text-anchor="start" x="603" y="-77" font-family="Helvetica,sans-Serif" font-size="10.00">_parser._get_reference</text>
<text text-anchor="middle" x="667" y="-66" font-family="Helvetica,sans-Serif" font-size="10.00">_parent_path</text>
</a>
</g>
</g>
<!-- Node3&#45;&gt;Node4 -->
<g id="edge3_Node000003_Node000004" class="edge">
<title>Node3&#45;&gt;Node4</title>
<g id="a_edge3_Node000003_Node000004"><a xlink:title=" ">
<path fill="none" stroke="#63b8ff" d="M559.12,-79.5C567.61,-79.5 576.33,-79.5 584.94,-79.5"/>
<polygon fill="#63b8ff" stroke="#63b8ff" points="585,-83 595,-79.5 585,-76 585,-83"/>
</a>
</g>
</g>
</g>
</svg>
