<?xml version="1.0" encoding="UTF-8"?>
<svg xmlns="http://www.w3.org/2000/svg" id="Ebene_1" data-name="Ebene 1" width="727.48" height="163.68" viewBox="0 0 727.48 163.68">
  <defs>
    <style>
      .cls-1 {
        fill: #fff;
      }

      .cls-1, .cls-2 {
        stroke-width: 0px;
      }

      .cls-2 {
        fill: #00a0c6;
      }
    </style>
  </defs>
  <path class="cls-2" d="m612.37,139.63v24.05h-21.14v-24.05h-41.87v-21.14l31.3-62.61h23.98l-31.3,62.61h17.89v-15.45h21.14v15.45h9.89v21.14h-9.89Z"></path>
  <path class="cls-2" d="m652,133.73c-2.44,2.44-5.35,3.66-8.74,3.66s-6.3-1.22-8.74-3.66c-2.44-2.44-3.66-5.36-3.66-8.74s1.22-6.3,3.66-8.74,5.35-3.66,8.74-3.66,6.3,1.22,8.74,3.66c2.44,2.44,3.66,5.35,3.66,8.74s-1.22,6.3-3.66,8.74Z"></path>
  <path class="cls-2" d="m724.71,121.71c-1.68,3.83-4,7.02-6.96,9.62-2.96,2.59-6.3,4.53-10.03,5.79-3.74,1.28-7.64,1.91-11.73,1.91s-8-.64-11.73-1.91c-3.74-1.26-7.07-3.2-10.04-5.79-2.95-2.6-5.27-5.79-6.95-9.62-1.68-3.81-2.52-8.13-2.52-12.95v-22.51c0-4.82.84-9.14,2.52-12.95,1.68-3.82,4-7.02,6.95-9.62,2.96-2.59,6.3-4.52,10.04-5.79,3.73-1.28,7.64-1.91,11.73-1.91s8,.63,11.73,1.91c3.73,1.27,7.07,3.2,10.03,5.79,2.96,2.6,5.27,5.79,6.96,9.62,1.68,3.81,2.52,8.13,2.52,12.95v22.51c0,4.82-.84,9.14-2.52,12.95Zm-19.87-35.46c0-3.27-.84-5.79-2.52-7.52-1.67-1.73-3.79-2.6-6.33-2.6s-4.65.87-6.34,2.6c-1.67,1.73-2.52,4.24-2.52,7.52v22.64c0,3.29.84,5.77,2.52,7.46,1.68,1.69,3.79,2.53,6.34,2.53s4.65-.84,6.33-2.53c1.68-1.69,2.52-4.17,2.52-7.46v-22.64Z"></path>
  <g>
    <path class="cls-1" d="m226.79,74.77v14.56h30.84v18.25h-30.84v32.12h-20.44V56.52h56.53v18.25h-36.09Z"></path>
    <path class="cls-1" d="m275.98,139.71V56.52h20.44v64.94h34.93v18.25h-55.36Z"></path>
    <path class="cls-1" d="m402.43,122.7c-1.63,3.7-3.91,6.87-6.83,9.52-2.92,2.65-6.31,4.67-10.16,6.07-3.85,1.4-7.92,2.1-12.2,2.1s-8.33-.7-12.15-2.1c-3.81-1.4-7.18-3.43-10.1-6.07-2.92-2.65-5.18-5.82-6.77-9.52-1.6-3.7-2.39-7.77-2.39-12.21v-53.97h20.44v53.48c0,3.81.97,6.79,2.92,8.93,1.95,2.14,4.63,3.21,8.06,3.21s6.15-1.07,8.17-3.21c2.02-2.14,3.04-5.12,3.04-8.93v-53.48h20.44v53.97c0,4.44-.82,8.51-2.45,12.21Z"></path>
    <path class="cls-1" d="m420.35,139.71V56.52h20.44v83.19h-20.44Z"></path>
    <path class="cls-1" d="m519.25,109.92c-.16,3.12-.53,5.92-1.11,8.41s-1.46,4.83-2.63,7.01c-1.17,2.18-2.72,4.25-4.67,6.19-2.72,2.73-6.01,4.77-9.87,6.13s-8.04,2.04-12.55,2.04h-30.82V56.52h30.82c4.51,0,8.7.66,12.55,1.99,3.85,1.32,7.14,3.39,9.87,6.19,1.95,1.95,3.5,4.01,4.67,6.19,1.17,2.18,2.04,4.52,2.63,7.01s.95,5.3,1.11,8.41c.16,3.12.23,7.05.23,11.8s-.08,8.69-.23,11.8Zm-20.32-20.39c-.08-2.14-.19-3.84-.35-5.08-.16-1.25-.37-2.24-.64-2.98-.27-.74-.64-1.42-1.11-2.04-1.01-1.47-2.29-2.62-3.85-3.43-1.56-.81-3.54-1.22-5.95-1.22h-8.98v46.69h8.98c2.41,0,4.39-.41,5.95-1.22,1.56-.81,2.84-1.96,3.85-3.43.47-.62.84-1.29,1.11-1.99.27-.7.49-1.67.64-2.92.16-1.25.27-2.96.35-5.14.08-2.18.12-5.06.12-8.65s-.04-6.44-.12-8.59Z"></path>
  </g>
  <path class="cls-1" d="m107.48,142.1c0,11.81-9.63,21.38-21.51,21.38H21.5c-11.87,0-21.5-9.57-21.5-21.38v-64.14c0-11.81,9.63-21.39,21.5-21.39l85.95-.02.04,85.55Zm-9.14-76.68H20.37c-7.42.01-11.51,5.33-11.51,11.14v64.96c0,9.84,9.26,12.96,13.76,12.96l62.5.04c6.75,0,13.25-6.75,13.25-14.5l-.03-74.6Z"></path>
  <path class="cls-2" d="m56.18,21.39c0-11.81,9.63-21.39,21.5-21.39h64.48c11.87,0,21.5,9.57,21.5,21.39v64.14c0,11.81-9.63,21.39-21.5,21.39h-64.48c-5.93,0-21.31.07-21.31.07,0,0-.19-15.56-.19-21.46V21.39Zm50.5,35.35h-41.3v41.3h41.3v-41.3Z"></path>
</svg>
